<svg width="24" height="25" viewBox="0 0 24 25" fill="none" xmlns="http://www.w3.org/2000/svg">
<path fill-rule="evenodd" clip-rule="evenodd" d="M12 2C9.21523 2 6.54451 3.10625 4.57538 5.07538C2.60625 7.04451 1.5 9.71523 1.5 12.5C1.5 15.2848 2.60625 17.9555 4.57538 19.9246C6.54451 21.8938 9.21523 23 12 23C14.7848 23 17.4555 21.8938 19.4246 19.9246C21.3938 17.9555 22.5 15.2848 22.5 12.5C22.5 9.71523 21.3938 7.04451 19.4246 5.07538C17.4555 3.10625 14.7848 2 12 2ZM12 24.5C8.8174 24.5 5.76515 23.2357 3.51472 20.9853C1.26428 18.7348 0 15.6826 0 12.5C0 9.3174 1.26428 6.26516 3.51472 4.01472C5.76515 1.76428 8.8174 0.5 12 0.5C15.1826 0.5 18.2348 1.76428 20.4853 4.01472C22.7357 6.26516 24 9.3174 24 12.5C24 15.6826 22.7357 18.7348 20.4853 20.9853C18.2348 23.2357 15.1826 24.5 12 24.5ZM17.25 13.25C17.4489 13.25 17.6397 13.171 17.7803 13.0303C17.921 12.8897 18 12.6989 18 12.5C18 12.3011 17.921 12.1103 17.7803 11.9697C17.6397 11.829 17.4489 11.75 17.25 11.75L8.5605 11.75L11.781 8.531C11.9218 8.39017 12.0009 8.19916 12.0009 8C12.0009 7.80084 11.9218 7.60983 11.781 7.469C11.6402 7.32817 11.4492 7.24905 11.25 7.24905C11.0508 7.24905 10.8598 7.32817 10.719 7.469L6.219 11.969C6.14915 12.0387 6.09374 12.1214 6.05593 12.2125C6.01812 12.3037 5.99866 12.4013 5.99866 12.5C5.99866 12.5987 6.01812 12.6963 6.05593 12.7874C6.09374 12.8786 6.14915 12.9613 6.219 13.031L10.719 17.531C10.8598 17.6718 11.0508 17.7509 11.25 17.7509C11.4492 17.7509 11.6402 17.6718 11.781 17.531C11.9218 17.3902 12.0009 17.1992 12.0009 17C12.0009 16.8008 11.9218 16.6098 11.781 16.469L8.5605 13.25L17.25 13.25Z" fill="white"/>
</svg>
