<svg width="24" height="25" viewBox="0 0 24 25" fill="none" xmlns="http://www.w3.org/2000/svg">
<path fill-rule="evenodd" clip-rule="evenodd" d="M12 23C14.7848 23 17.4555 21.8938 19.4246 19.9246C21.3938 17.9555 22.5 15.2848 22.5 12.5C22.5 9.71523 21.3938 7.04451 19.4246 5.07538C17.4555 3.10625 14.7848 2 12 2C9.21523 2 6.54451 3.10625 4.57538 5.07538C2.60625 7.04451 1.5 9.71523 1.5 12.5C1.5 15.2848 2.60625 17.9555 4.57538 19.9246C6.54451 21.8938 9.21523 23 12 23ZM12 0.5C15.1826 0.5 18.2348 1.76428 20.4853 4.01472C22.7357 6.26515 24 9.3174 24 12.5C24 15.6826 22.7357 18.7348 20.4853 20.9853C18.2348 23.2357 15.1826 24.5 12 24.5C8.8174 24.5 5.76516 23.2357 3.51472 20.9853C1.26428 18.7348 0 15.6826 0 12.5C0 9.3174 1.26428 6.26515 3.51472 4.01472C5.76516 1.76428 8.8174 0.5 12 0.5ZM6.75 11.75C6.55109 11.75 6.36032 11.829 6.21967 11.9697C6.07902 12.1103 6 12.3011 6 12.5C6 12.6989 6.07902 12.8897 6.21967 13.0303C6.36032 13.171 6.55109 13.25 6.75 13.25L15.4395 13.25L12.219 16.469C12.0782 16.6098 11.9991 16.8008 11.9991 17C11.9991 17.1992 12.0782 17.3902 12.219 17.531C12.3598 17.6718 12.5508 17.7509 12.75 17.7509C12.9492 17.7509 13.1402 17.6718 13.281 17.531L17.781 13.031C17.8508 12.9613 17.9063 12.8786 17.9441 12.7875C17.9819 12.6963 18.0013 12.5987 18.0013 12.5C18.0013 12.4013 17.9819 12.3037 17.9441 12.2126C17.9063 12.1214 17.8508 12.0387 17.781 11.969L13.281 7.469C13.1402 7.32817 12.9492 7.24905 12.75 7.24905C12.5508 7.24905 12.3598 7.32817 12.219 7.469C12.0782 7.60983 11.9991 7.80084 11.9991 8C11.9991 8.19916 12.0782 8.39017 12.219 8.531L15.4395 11.75L6.75 11.75Z" fill="white"/>
</svg>
