<svg width="40" height="61" viewBox="0 0 40 61" fill="none" xmlns="http://www.w3.org/2000/svg">
<path d="M14.4531 45.6172C13.125 46.763 12.0443 47.5378 11.2109 47.9414C10.3906 48.332 9.45964 48.5273 8.41797 48.5273C6.45182 48.5273 4.79818 47.7591 3.45703 46.2227C2.12891 44.6862 1.46484 42.7852 1.46484 40.5195C1.46484 38.0195 2.25911 35.9102 3.84766 34.1914C5.44922 32.4727 7.40885 31.6133 9.72656 31.6133C11.3021 31.6133 12.8776 32.0755 14.4531 33V25.2852C14.4531 22.8112 13.7891 21.6133 12.4609 21.6914L11.7773 21.7305C11.6862 21.7305 11.6016 21.7174 11.5234 21.6914C11.3932 21.6393 11.3216 21.5417 11.3086 21.3984C11.2826 21.138 11.4714 20.9818 11.875 20.9297C13.2161 20.7604 14.7396 20.1615 16.4453 19.1328C16.5885 19.0417 16.7122 18.9961 16.8164 18.9961C17.0117 18.9961 17.1094 19.1393 17.1094 19.4258L17.1289 19.7773V44.6016C17.1289 46.0729 17.5781 46.8086 18.4766 46.8086L19.6289 46.7695L19.8047 46.7891C19.9479 46.8411 20.0195 46.9453 20.0195 47.1016C20.0195 47.388 19.7852 47.5573 19.3164 47.6094C18.7826 47.6615 18.444 47.7005 18.3008 47.7266L17.207 47.9023C16.3477 48.0326 15.7747 48.1693 15.4883 48.3125C15.2409 48.4557 15.0456 48.5273 14.9023 48.5273C14.6029 48.5404 14.4531 48.2148 14.4531 47.5508V45.6172ZM14.4531 43.2539V36.8086C14.4531 35.6367 14.1667 34.7773 13.5938 34.2305C12.3047 32.9935 10.7747 32.375 9.00391 32.375C7.42839 32.375 6.15234 32.974 5.17578 34.1719C4.21224 35.3698 3.73047 36.9453 3.73047 38.8984C3.73047 41.0339 4.36198 42.8893 5.625 44.4648C6.90104 46.0273 8.40495 46.8086 10.1367 46.8086C11.4128 46.8086 12.4479 46.4831 13.2422 45.832C14.0495 45.168 14.4531 44.3086 14.4531 43.2539Z" fill="#664500"/>
<path d="M29.1562 20.6133C31.5 20.6133 33.5117 21.4401 35.1914 23.0938C36.8711 24.7344 37.7109 26.694 37.7109 28.9727C37.7109 31.4466 36.8841 33.4909 35.2305 35.1055C33.5768 36.7201 31.487 37.5273 28.9609 37.5273C26.487 37.5273 24.4492 36.7461 22.8477 35.1836C21.2591 33.6081 20.4648 31.5964 20.4648 29.1484C20.4648 26.7786 21.3112 24.7669 23.0039 23.1133C24.6966 21.4466 26.7474 20.6133 29.1562 20.6133ZM28.6484 21.3945C27.0208 21.3945 25.7057 22 24.7031 23.2109C23.7135 24.4089 23.2188 25.9844 23.2188 27.9375C23.2188 30.4245 23.8372 32.5078 25.0742 34.1875C26.3242 35.8542 27.8737 36.6875 29.7227 36.6875C31.3372 36.6875 32.6068 36.0951 33.5312 34.9102C34.4688 33.7253 34.9375 32.1172 34.9375 30.0859C34.9375 27.5208 34.3516 25.431 33.1797 23.8164C32.0078 22.2018 30.4974 21.3945 28.6484 21.3945Z" fill="#664500"/>
<path d="M29 49.2C28.3333 49.2 27.76 48.96 27.28 48.48C26.8 48 26.56 47.4267 26.56 46.76C26.56 46.0933 26.8 45.52 27.28 45.04C27.76 44.56 28.3333 44.32 29 44.32C29.6667 44.32 30.24 44.56 30.72 45.04C31.2 45.52 31.44 46.0933 31.44 46.76C31.44 47.4267 31.2 48 30.72 48.48C30.24 48.96 29.6667 49.2 29 49.2Z" fill="#664500"/>
</svg>
